<svg id="logo" data-name="Layer 1" xmlns="http://www.w3.org/2000/svg" viewBox="0 0 1773.62 555.5"><defs><style>.cls-1{isolation:isolate;font-size:504.31px;font-family:FuturaPT-ExtraBold, Futura PT;font-weight:800;}.cls-1,.cls-2{fill:#ff3e00;}</style></defs><text class="cls-1" transform="translate(322.23 420.34)">FWFD</text><path class="cls-2" d="M253.48,255.82c-12.34-5.07-16.76-23.25-16-29.79.29-3,.74-5.28,0-6.13-2.88-3.38-9.05,4.28-13.74,10.94L202.87,258l-1.23,1.56a51.5,51.5,0,0,0-10.45,41.85c4.65,22.71,30.39,39,54,34.13s43.32-23.18,38.7-45.88C280.43,272.75,271.42,263.21,253.48,255.82Z" transform="translate(-84.14 2.28)"/><path class="cls-2" d="M322.94,90.07a553.6,553.6,0,0,0-173.51,0L84.14,102.24V229.45c0,101.72,43.41,193.26,140.89,222.31l11.16,3.33,11.15-3.33c97.5-29.05,139.54-118.67,139.54-220.39V104.13ZM334.2,282.79c0,49.32-46.71,94.23-98,94.23s-98-44.91-98-94.23c0-36.65,22-61.53,39.63-81.5,18.79-21.27,32.08-42.54,27.72-55.86-1.95-6-3.9-10.67-2.72-12.74,4.61-8.22,19.66,2.23,32.41,14.05,20.83,19.35,32.17,45.24,32.34,82.38a5.28,5.28,0,0,0,4.21,5.32,5,5,0,0,0,.86.08,5.09,5.09,0,0,0,5.09-5.09c0-.12.14-1.34.14-2.08,0-3.65.72-25.37,1.74-27.51a7.62,7.62,0,0,1,11.68-2.52l3.23,2.63c24.85,20.66,39.68,51.62,39.68,82.76Z" transform="translate(-84.14 2.28)"/></svg>