<?xml version="1.0" encoding="utf-8"?>
<!-- Generator: Adobe Illustrator 26.0.3, SVG Export Plug-In . SVG Version: 6.00 Build 0)  -->
<svg version="1.1" id="Layer_1" xmlns="http://www.w3.org/2000/svg" xmlns:xlink="http://www.w3.org/1999/xlink" x="0px" y="0px"
	 viewBox="0 0 1920 524.9" style="enable-background:new 0 0 1920 524.9;" xml:space="preserve">
<style type="text/css">
	.st0{fill:#FF3E00;}
	.st1{font-family:'FuturaPT-ExtraBold';}
	.st2{font-size:504.3114px;}
</style>
<text transform="matrix(1 0 0 1 406.3642 418.0588)" class="st0 st1 st2">FWFD</text>
<g>
	<path class="st0" d="M253.5,255.8c-12.3-5.1-16.8-23.3-16-29.8c0.3-3,0.7-5.3,0-6.1c-2.9-3.4-9.1,4.3-13.7,10.9L202.9,258l-1.2,1.6
		c-9.4,11.8-13.3,27-10.4,41.9c4.7,22.7,30.4,39,54,34.1c23.6-4.8,43.3-23.2,38.7-45.9C280.4,272.8,271.4,263.2,253.5,255.8z"/>
	<path class="st0" d="M322.9,90.1c-57.5-9.1-116-9.1-173.5,0l-65.3,12.2v127.2c0,101.7,43.4,193.3,140.9,222.3l11.2,3.3l11.2-3.3
		c97.5-29,139.5-118.7,139.5-220.4V104.1L322.9,90.1z M334.2,282.8c0,49.3-46.7,94.2-98,94.2c-51.3,0-98-44.9-98-94.2
		c0-36.7,22-61.5,39.6-81.5c18.8-21.3,32.1-42.5,27.7-55.9c-2-6-3.9-10.7-2.7-12.7c4.6-8.2,19.7,2.2,32.4,14.1
		c20.8,19.3,32.2,45.2,32.3,82.4c-0.1,2.6,1.7,4.8,4.2,5.3c0.3,0,0.6,0.1,0.9,0.1c2.8,0,5.1-2.3,5.1-5.1c0-0.1,0.1-1.3,0.1-2.1
		c0-3.7,0.7-25.4,1.7-27.5c0.3-0.5,0.6-1,0.9-1.4c2.7-3.3,7.5-3.7,10.7-1.1l3.2,2.6C319.4,220.6,334.2,251.6,334.2,282.8
		L334.2,282.8z"/>
</g>
</svg>
